PathFileType	3	(X/Y/Z)	D:\Vicon Setup\UG\Test1\New Session\NewSession13.trc
DataRate	CameraRate	NumFrames	NumMarkers	Units	OrigDataRate	OrigDataStartFrame	OrigNumFrames
100.0	100.0	4	27	mm	100.0	414	333	
Frame#	Time	Sternum			LShoulder			RShoulder			LASIS			RASIS			RPSIS			LPSIS			RKneeLateral			RKneeMedial			RFibulaHead			RMidShank			RAnkleLateral			RAnkleMedial			RHeel			RMT5			RMT2			RToe			LKneeLateral			LKneeMedial			LFibulaHead			LMidShank			LAnkleLateral			LAnkleMedial			LHeel			LMT5			LMT2			LToe			
		X1	Y1	Z1	X2	Y2	Z2	X3	Y3	Z3	X4	Y4	Z4	X5	Y5	Z5	X6	Y6	Z6	X7	Y7	Z7	X8	Y8	Z8	X9	Y9	Z9	X10	Y10	Z10	X11	Y11	Z11	X12	Y12	Z12	X13	Y13	Z13	X14	Y14	Z14	X15	Y15	Z15	X16	Y16	Z16	X17	Y17	Z17	X18	Y18	Z18	X19	Y19	Z19	X20	Y20	Z20	X21	Y21	Z21	X22	Y22	Z22	X23	Y23	Z23	X24	Y24	Z24	X25	Y25	Z25	X26	Y26	Z26	X27	Y27	Z27	
414	4.13	-253.13234	1340.205	-3362.3503	-69.28875	1404.813	-3465.0837	-433.59705	1393.0583	-3439.928	-140.00993	972.20654	-3411.6184	-395.64587	969.2251	-3430.8953	-311.79745	988.54938	-3599.2957	-180.49438	988.34552	-3597.3665	-431.7392	503.52567	-3547.9136	-311.39767	466.27313	-3504.0459	-434.84543	440.12051	-3592.1643	-342.46716	304.60776	-3677.9275	-378.56003	210.14885	-3863.2871	-307.68893	186.03824	-3804.3418	-315.85834	265.04074	-3897.3645	-400.73331	45.114891	-3877.0449	-342.99423	60.440052	-3829.8914	-342.10339	31.805719	-3822.1995	-108.07168	512.27222	-3317.051	-237.80241	507.20514	-3306.9985	-105.67236	448.65244	-3318.7556	-192.81664	301.39658	-3277.1321	-143.26674	91.108849	-3312.8562	-225.24471	116.29859	-3274.1907	-206.69281	59.683109	-3378.5269	-103.73466	42.857197	-3175.4688	-167.27908	68.108109	-3159.7673	-176.47487	59.780762	-3120.8411
415	4.14	-252.5742	1341.9336	-3347.0317	-68.543709	1406.7593	-3449.1714	-433.05576	1394.8588	-3424.6086	-138.1441	974.42859	-3395.9412	-394.14233	970.75769	-3415.8477	-310.77731	989.42035	-3584.418	-179.50113	990.21808	-3581.8191	-433.28702	503.41672	-3519.8931	-313.16522	464.64227	-3473.0986	-436.68817	441.33514	-3563.4285	-344.47705	307.52878	-3651.2563	-380.1507	218.75392	-3838.9978	-310.54025	191.36519	-3780.1431	-316.21243	276.7782	-3866.7754	-400.71008	54.106087	-3867.5811	-346.85577	65.816643	-3815.2837	-345.79922	31.107454	-3810.9443	-107.85164	511.75671	-3307.4866	-237.22408	506.3541	-3295.0325	-105.64439	448.00821	-3310.1409	-193.97675	300.60913	-3271.4795	-144.56699	91.702248	-3311.7146	-226.85225	115.74713	-3272.8516	-206.95064	59.898407	-3378.3542	-104.45689	42.775318	-3175.0144	-167.55563	66.713531	-3158.7461	-176.36089	56.111275	-3119.5393
416	4.15	-252.23479	1343.7789	-3331.9827	-67.783936	1408.8241	-3433.366	-432.41815	1396.7133	-3410.1672	-136.55978	976.45782	-3380.4883	-392.80173	972.67883	-3400.9573	-309.24011	990.5434	-3569.7896	-178.10922	992.03534	-3566.4382	-434.49841	504.20416	-3492.1477	-314.3862	464.83716	-3442.5801	-438.52664	443.1171	-3534.2656	-346.55853	310.37955	-3623.5664	-380.36752	227.31691	-3814.9495	-312.96481	195.80847	-3755.0034	-312.96063	284.86871	-3837.4011	-402.80298	64.722504	-3853.0862	-351.2103	72.681252	-3797.8569	-350.41061	30.333412	-3792.9331	-108.11434	510.87482	-3300.0193	-237.44527	504.66718	-3285.1221	-105.66087	447.12787	-3303.7683	-195.13667	299.50229	-3266.5774	-145.94032	92.362495	-3310.4583	-228.36494	115.21931	-3271.0852	-207.67984	60.28289	-3377.8628	-104.57446	42.080101	-3174.3494	-167.74414	65.274506	-3157.5249	-176.33821	52.097603	-3117.8938
417	4.16	-252.0591	1345.9978	-3317.0496	-67.010262	1411.0754	-3417.6206	-432.10547	1398.6294	-3395.8274	-135.21246	978.49908	-3365.0894	-391.78183	975.01892	-3386.2439	-307.44711	991.93524	-3555.4016	-176.4463	994.06775	-3551.3313	-435.2699	505.80417	-3464.5771	-314.65042	466.66327	-3414.3474	-440.03336	445.33984	-3504.9326	-347.92059	313.54843	-3595.72	-379.05869	236.2343	-3791.1528	-314.94824	199.85283	-3729.7993	-308.0712	290.65063	-3809.929	-408.69339	75.938705	-3832.3103	-357.05823	79.869843	-3775.7212	-360.20267	39.369915	-3772.2988	-108.38593	510.63693	-3294.2585	-237.42174	502.57098	-3277.0645	-105.85776	446.48157	-3298.6091	-195.68367	298.67645	-3261.7634	-147.2178	92.982208	-3309.2742	-229.81641	114.72665	-3269.5286	-208.28088	60.796799	-3377.377	-105.11759	41.959045	-3174.0076	-168.22263	64.099945	-3156.2993	-176.14561	49.080688	-3116.3752
